<mxfile host="app.diagrams.net" modified="2022-06-22T15:54:20.578Z" agent="5.0 (Windows NT 10.0; Win64; x64) AppleWebKit/537.36 (KHTML, like Gecko) Chrome/102.0.0.0 Safari/537.36" etag="SoKMWAZoHrHdbmKibXVA" version="20.0.1" type="github">
  <diagram id="R3eRClDqZ2LJtudLOTUs" name="Page-1">
    <mxGraphModel dx="1950" dy="867" grid="0" gridSize="10" guides="1" tooltips="1" connect="1" arrows="1" fold="1" page="0" pageScale="1" pageWidth="827" pageHeight="1169" math="0" shadow="0">
      <root>
        <mxCell id="0" />
        <mxCell id="1" parent="0" />
        <mxCell id="MJgvrgMyZ8aBI9BDAx1X-4" value="Drop Checker" style="html=1;" vertex="1" parent="1">
          <mxGeometry x="-38" y="325" width="110" height="50" as="geometry" />
        </mxCell>
        <mxCell id="MJgvrgMyZ8aBI9BDAx1X-5" value="Borrow Checker" style="html=1;" vertex="1" parent="1">
          <mxGeometry x="-38" y="395" width="110" height="50" as="geometry" />
        </mxCell>
        <mxCell id="MJgvrgMyZ8aBI9BDAx1X-10" value="for" style="edgeStyle=orthogonalEdgeStyle;rounded=0;orthogonalLoop=1;jettySize=auto;html=1;" edge="1" parent="1" source="MJgvrgMyZ8aBI9BDAx1X-6" target="MJgvrgMyZ8aBI9BDAx1X-9">
          <mxGeometry relative="1" as="geometry" />
        </mxCell>
        <mxCell id="MJgvrgMyZ8aBI9BDAx1X-12" value="" style="edgeStyle=orthogonalEdgeStyle;rounded=0;orthogonalLoop=1;jettySize=auto;html=1;entryX=0;entryY=0.5;entryDx=0;entryDy=0;" edge="1" parent="1" source="MJgvrgMyZ8aBI9BDAx1X-6" target="MJgvrgMyZ8aBI9BDAx1X-11">
          <mxGeometry relative="1" as="geometry" />
        </mxCell>
        <mxCell id="MJgvrgMyZ8aBI9BDAx1X-6" value="Variance" style="html=1;" vertex="1" parent="1">
          <mxGeometry x="422" y="135" width="110" height="50" as="geometry" />
        </mxCell>
        <mxCell id="MJgvrgMyZ8aBI9BDAx1X-8" value="occurs only" style="edgeStyle=orthogonalEdgeStyle;rounded=0;orthogonalLoop=1;jettySize=auto;html=1;entryX=0;entryY=0.5;entryDx=0;entryDy=0;" edge="1" parent="1" source="MJgvrgMyZ8aBI9BDAx1X-7" target="MJgvrgMyZ8aBI9BDAx1X-6">
          <mxGeometry relative="1" as="geometry" />
        </mxCell>
        <mxCell id="MJgvrgMyZ8aBI9BDAx1X-7" value="Subtyping" style="html=1;" vertex="1" parent="1">
          <mxGeometry x="200" y="135" width="110" height="50" as="geometry" />
        </mxCell>
        <mxCell id="MJgvrgMyZ8aBI9BDAx1X-9" value="Lifetime" style="html=1;" vertex="1" parent="1">
          <mxGeometry x="623" y="135" width="110" height="50" as="geometry" />
        </mxCell>
        <mxCell id="MJgvrgMyZ8aBI9BDAx1X-11" value="Between Types &lt;br&gt;with Higher Ranked Lifetime" style="html=1;" vertex="1" parent="1">
          <mxGeometry x="623" y="216" width="152" height="50" as="geometry" />
        </mxCell>
        <mxCell id="MJgvrgMyZ8aBI9BDAx1X-15" value="is subtype" style="edgeStyle=orthogonalEdgeStyle;rounded=0;orthogonalLoop=1;jettySize=auto;html=1;" edge="1" parent="1" source="MJgvrgMyZ8aBI9BDAx1X-13" target="MJgvrgMyZ8aBI9BDAx1X-14">
          <mxGeometry relative="1" as="geometry" />
        </mxCell>
        <mxCell id="MJgvrgMyZ8aBI9BDAx1X-13" value="&lt;i&gt;&#39;static&lt;/i&gt;" style="html=1;" vertex="1" parent="1">
          <mxGeometry x="413" y="20" width="110" height="50" as="geometry" />
        </mxCell>
        <mxCell id="MJgvrgMyZ8aBI9BDAx1X-14" value="&lt;i&gt;any lifetime &#39;a&lt;/i&gt;" style="html=1;" vertex="1" parent="1">
          <mxGeometry x="603" y="20" width="110" height="50" as="geometry" />
        </mxCell>
        <mxCell id="MJgvrgMyZ8aBI9BDAx1X-18" value="" style="edgeStyle=orthogonalEdgeStyle;rounded=0;orthogonalLoop=1;jettySize=auto;html=1;" edge="1" parent="1" source="MJgvrgMyZ8aBI9BDAx1X-16" target="MJgvrgMyZ8aBI9BDAx1X-17">
          <mxGeometry relative="1" as="geometry" />
        </mxCell>
        <mxCell id="MJgvrgMyZ8aBI9BDAx1X-27" style="edgeStyle=orthogonalEdgeStyle;rounded=0;orthogonalLoop=1;jettySize=auto;html=1;entryX=0;entryY=0.5;entryDx=0;entryDy=0;fontSize=12;" edge="1" parent="1" source="MJgvrgMyZ8aBI9BDAx1X-16" target="MJgvrgMyZ8aBI9BDAx1X-23">
          <mxGeometry relative="1" as="geometry" />
        </mxCell>
        <mxCell id="MJgvrgMyZ8aBI9BDAx1X-28" style="edgeStyle=orthogonalEdgeStyle;rounded=0;orthogonalLoop=1;jettySize=auto;html=1;entryX=0;entryY=0.5;entryDx=0;entryDy=0;fontSize=12;" edge="1" parent="1" source="MJgvrgMyZ8aBI9BDAx1X-16" target="MJgvrgMyZ8aBI9BDAx1X-24">
          <mxGeometry relative="1" as="geometry" />
        </mxCell>
        <mxCell id="MJgvrgMyZ8aBI9BDAx1X-16" value="null-pointer optimization" style="html=1;" vertex="1" parent="1">
          <mxGeometry x="357" y="410" width="148" height="50" as="geometry" />
        </mxCell>
        <mxCell id="MJgvrgMyZ8aBI9BDAx1X-20" value="null" style="edgeStyle=orthogonalEdgeStyle;rounded=0;orthogonalLoop=1;jettySize=auto;html=1;entryX=0;entryY=0.5;entryDx=0;entryDy=0;" edge="1" parent="1" source="MJgvrgMyZ8aBI9BDAx1X-17" target="MJgvrgMyZ8aBI9BDAx1X-19">
          <mxGeometry relative="1" as="geometry" />
        </mxCell>
        <mxCell id="MJgvrgMyZ8aBI9BDAx1X-22" value="non null pointer" style="edgeStyle=orthogonalEdgeStyle;rounded=0;orthogonalLoop=1;jettySize=auto;html=1;entryX=0;entryY=0.5;entryDx=0;entryDy=0;" edge="1" parent="1" source="MJgvrgMyZ8aBI9BDAx1X-17" target="MJgvrgMyZ8aBI9BDAx1X-21">
          <mxGeometry relative="1" as="geometry" />
        </mxCell>
        <mxCell id="MJgvrgMyZ8aBI9BDAx1X-17" value="Option&amp;lt;T&amp;gt;" style="html=1;" vertex="1" parent="1">
          <mxGeometry x="561" y="410" width="148" height="50" as="geometry" />
        </mxCell>
        <mxCell id="MJgvrgMyZ8aBI9BDAx1X-19" value="None" style="html=1;" vertex="1" parent="1">
          <mxGeometry x="788" y="345" width="148" height="50" as="geometry" />
        </mxCell>
        <mxCell id="MJgvrgMyZ8aBI9BDAx1X-21" value="Some(T)" style="html=1;" vertex="1" parent="1">
          <mxGeometry x="788" y="473" width="148" height="50" as="geometry" />
        </mxCell>
        <mxCell id="MJgvrgMyZ8aBI9BDAx1X-23" value="&lt;font style=&quot;font-size: 12px;&quot;&gt;&lt;span style=&quot;color: rgb(0, 0, 0); font-family: &amp;quot;Open Sans&amp;quot;, sans-serif; font-style: normal; font-variant-ligatures: normal; font-variant-caps: normal; font-weight: 400; letter-spacing: normal; orphans: 2; text-align: start; text-indent: 0px; text-transform: none; widows: 2; word-spacing: 0px; -webkit-text-stroke-width: 0px; background-color: rgb(255, 255, 255); text-decoration-thickness: initial; text-decoration-style: initial; text-decoration-color: initial; float: none; display: inline !important;&quot;&gt;an enum consisting of a single outer unit variant (e.g.&amp;nbsp;&lt;/span&gt;&lt;code style=&quot;display: inline; overflow-x: initial; background: rgb(246, 247, 246); color: var(--inline-code-color); padding: 0.1em 0.3em; border-radius: 3px; font-style: normal; font-variant-ligatures: normal; font-variant-caps: normal; font-weight: 400; letter-spacing: normal; orphans: 2; text-align: start; text-indent: 0px; text-transform: none; widows: 2; word-spacing: 0px; -webkit-text-stroke-width: 0px; text-decoration-thickness: initial; text-decoration-style: initial; text-decoration-color: initial; font-family: &amp;quot;Source Code Pro&amp;quot;, Consolas, &amp;quot;Ubuntu Mono&amp;quot;, Menlo, &amp;quot;DejaVu Sans Mono&amp;quot;, monospace, monospace !important;&quot; class=&quot;hljs&quot;&gt;None&lt;/code&gt;&lt;span style=&quot;color: rgb(0, 0, 0); font-family: &amp;quot;Open Sans&amp;quot;, sans-serif; font-style: normal; font-variant-ligatures: normal; font-variant-caps: normal; font-weight: 400; letter-spacing: normal; orphans: 2; text-align: start; text-indent: 0px; text-transform: none; widows: 2; word-spacing: 0px; -webkit-text-stroke-width: 0px; background-color: rgb(255, 255, 255); text-decoration-thickness: initial; text-decoration-style: initial; text-decoration-color: initial; float: none; display: inline !important;&quot;&gt;) and a (potentially nested) non-&lt;span&gt;&amp;nbsp;&lt;/span&gt;&lt;/span&gt;&lt;mark style=&quot;border-radius: 2px; padding: 0px 3px 1px; margin: 0px -3px -1px; background-color: var(--search-mark-bg); transition: background-color 300ms linear 0s; cursor: pointer; font-family: &amp;quot;Open Sans&amp;quot;, sans-serif; font-style: normal; font-variant-ligatures: normal; font-variant-caps: normal; font-weight: 400; letter-spacing: normal; orphans: 2; text-align: start; text-indent: 0px; text-transform: none; widows: 2; word-spacing: 0px; -webkit-text-stroke-width: 0px; text-decoration-thickness: initial; text-decoration-style: initial; text-decoration-color: initial;&quot; data-markjs=&quot;true&quot;&gt;null&lt;/mark&gt;&lt;span style=&quot;color: rgb(0, 0, 0); font-family: &amp;quot;Open Sans&amp;quot;, sans-serif; font-style: normal; font-variant-ligatures: normal; font-variant-caps: normal; font-weight: 400; letter-spacing: normal; orphans: 2; text-align: start; text-indent: 0px; text-transform: none; widows: 2; word-spacing: 0px; -webkit-text-stroke-width: 0px; background-color: rgb(255, 255, 255); text-decoration-thickness: initial; text-decoration-style: initial; text-decoration-color: initial; float: none; display: inline !important;&quot;&gt;able&lt;span&gt;&amp;nbsp;&lt;/span&gt;&lt;/span&gt;&lt;mark style=&quot;border-radius: 2px; padding: 0px 3px 1px; margin: 0px -3px -1px; background-color: var(--search-mark-bg); transition: background-color 300ms linear 0s; cursor: pointer; font-family: &amp;quot;Open Sans&amp;quot;, sans-serif; font-style: normal; font-variant-ligatures: normal; font-variant-caps: normal; font-weight: 400; letter-spacing: normal; orphans: 2; text-align: start; text-indent: 0px; text-transform: none; widows: 2; word-spacing: 0px; -webkit-text-stroke-width: 0px; text-decoration-thickness: initial; text-decoration-style: initial; text-decoration-color: initial;&quot; data-markjs=&quot;true&quot;&gt;pointer&lt;/mark&gt;&lt;span style=&quot;color: rgb(0, 0, 0); font-family: &amp;quot;Open Sans&amp;quot;, sans-serif; font-style: normal; font-variant-ligatures: normal; font-variant-caps: normal; font-weight: 400; letter-spacing: normal; orphans: 2; text-align: start; text-indent: 0px; text-transform: none; widows: 2; word-spacing: 0px; -webkit-text-stroke-width: 0px; background-color: rgb(255, 255, 255); text-decoration-thickness: initial; text-decoration-style: initial; text-decoration-color: initial; float: none; display: inline !important;&quot;&gt;&lt;span&gt;&amp;nbsp;&lt;/span&gt;variant (e.g.&lt;span&gt;&amp;nbsp;&lt;/span&gt;&lt;/span&gt;&lt;code style=&quot;display: inline; overflow-x: initial; background: rgb(246, 247, 246); color: var(--inline-code-color); padding: 0.1em 0.3em; border-radius: 3px; font-style: normal; font-variant-ligatures: normal; font-variant-caps: normal; font-weight: 400; letter-spacing: normal; orphans: 2; text-align: start; text-indent: 0px; text-transform: none; widows: 2; word-spacing: 0px; -webkit-text-stroke-width: 0px; text-decoration-thickness: initial; text-decoration-style: initial; text-decoration-color: initial; font-family: &amp;quot;Source Code Pro&amp;quot;, Consolas, &amp;quot;Ubuntu Mono&amp;quot;, Menlo, &amp;quot;DejaVu Sans Mono&amp;quot;, monospace, monospace !important;&quot; class=&quot;hljs&quot;&gt;Some(&amp;amp;T)&lt;/code&gt;&lt;span style=&quot;color: rgb(0, 0, 0); font-family: &amp;quot;Open Sans&amp;quot;, sans-serif; font-style: normal; font-variant-ligatures: normal; font-variant-caps: normal; font-weight: 400; letter-spacing: normal; orphans: 2; text-align: start; text-indent: 0px; text-transform: none; widows: 2; word-spacing: 0px; -webkit-text-stroke-width: 0px; background-color: rgb(255, 255, 255); text-decoration-thickness: initial; text-decoration-style: initial; text-decoration-color: initial; float: none; display: inline !important;&quot;&gt;) makes the tag unnecessary. A&lt;span&gt;&amp;nbsp;&lt;/span&gt;&lt;/span&gt;&lt;mark style=&quot;border-radius: 2px; padding: 0px 3px 1px; margin: 0px -3px -1px; background-color: var(--search-mark-bg); transition: background-color 300ms linear 0s; cursor: pointer; font-family: &amp;quot;Open Sans&amp;quot;, sans-serif; font-style: normal; font-variant-ligatures: normal; font-variant-caps: normal; font-weight: 400; letter-spacing: normal; orphans: 2; text-align: start; text-indent: 0px; text-transform: none; widows: 2; word-spacing: 0px; -webkit-text-stroke-width: 0px; text-decoration-thickness: initial; text-decoration-style: initial; text-decoration-color: initial;&quot; data-markjs=&quot;true&quot;&gt;null&lt;/mark&gt;&lt;span style=&quot;color: rgb(0, 0, 0); font-family: &amp;quot;Open Sans&amp;quot;, sans-serif; font-style: normal; font-variant-ligatures: normal; font-variant-caps: normal; font-weight: 400; letter-spacing: normal; orphans: 2; text-align: start; text-indent: 0px; text-transform: none; widows: 2; word-spacing: 0px; -webkit-text-stroke-width: 0px; background-color: rgb(255, 255, 255); text-decoration-thickness: initial; text-decoration-style: initial; text-decoration-color: initial; float: none; display: inline !important;&quot;&gt;&lt;span&gt;&amp;nbsp;&lt;/span&gt;&lt;/span&gt;&lt;mark style=&quot;border-radius: 2px; padding: 0px 3px 1px; margin: 0px -3px -1px; background-color: var(--search-mark-bg); transition: background-color 300ms linear 0s; cursor: pointer; font-family: &amp;quot;Open Sans&amp;quot;, sans-serif; font-style: normal; font-variant-ligatures: normal; font-variant-caps: normal; font-weight: 400; letter-spacing: normal; orphans: 2; text-align: start; text-indent: 0px; text-transform: none; widows: 2; word-spacing: 0px; -webkit-text-stroke-width: 0px; text-decoration-thickness: initial; text-decoration-style: initial; text-decoration-color: initial;&quot; data-markjs=&quot;true&quot;&gt;pointer&lt;/mark&gt;&lt;span style=&quot;color: rgb(0, 0, 0); font-family: &amp;quot;Open Sans&amp;quot;, sans-serif; font-style: normal; font-variant-ligatures: normal; font-variant-caps: normal; font-weight: 400; letter-spacing: normal; orphans: 2; text-align: start; text-indent: 0px; text-transform: none; widows: 2; word-spacing: 0px; -webkit-text-stroke-width: 0px; background-color: rgb(255, 255, 255); text-decoration-thickness: initial; text-decoration-style: initial; text-decoration-color: initial; float: none; display: inline !important;&quot;&gt;&lt;span&gt;&amp;nbsp;&lt;/span&gt;can safely be interpreted as the unit (&lt;/span&gt;&lt;code style=&quot;display: inline; overflow-x: initial; background: rgb(246, 247, 246); color: var(--inline-code-color); padding: 0.1em 0.3em; border-radius: 3px; font-style: normal; font-variant-ligatures: normal; font-variant-caps: normal; font-weight: 400; letter-spacing: normal; orphans: 2; text-align: start; text-indent: 0px; text-transform: none; widows: 2; word-spacing: 0px; -webkit-text-stroke-width: 0px; text-decoration-thickness: initial; text-decoration-style: initial; text-decoration-color: initial; font-family: &amp;quot;Source Code Pro&amp;quot;, Consolas, &amp;quot;Ubuntu Mono&amp;quot;, Menlo, &amp;quot;DejaVu Sans Mono&amp;quot;, monospace, monospace !important;&quot; class=&quot;hljs&quot;&gt;None&lt;/code&gt;&lt;span style=&quot;color: rgb(0, 0, 0); font-family: &amp;quot;Open Sans&amp;quot;, sans-serif; font-style: normal; font-variant-ligatures: normal; font-variant-caps: normal; font-weight: 400; letter-spacing: normal; orphans: 2; text-align: start; text-indent: 0px; text-transform: none; widows: 2; word-spacing: 0px; -webkit-text-stroke-width: 0px; background-color: rgb(255, 255, 255); text-decoration-thickness: initial; text-decoration-style: initial; text-decoration-color: initial; float: none; display: inline !important;&quot;&gt;) variant. The net result is that, for example,&lt;span&gt;&amp;nbsp;&lt;/span&gt;&lt;/span&gt;&lt;code style=&quot;display: inline; overflow-x: initial; background: rgb(246, 247, 246); color: var(--inline-code-color); padding: 0.1em 0.3em; border-radius: 3px; font-style: normal; font-variant-ligatures: normal; font-variant-caps: normal; font-weight: 400; letter-spacing: normal; orphans: 2; text-align: start; text-indent: 0px; text-transform: none; widows: 2; word-spacing: 0px; -webkit-text-stroke-width: 0px; text-decoration-thickness: initial; text-decoration-style: initial; text-decoration-color: initial; font-family: &amp;quot;Source Code Pro&amp;quot;, Consolas, &amp;quot;Ubuntu Mono&amp;quot;, Menlo, &amp;quot;DejaVu Sans Mono&amp;quot;, monospace, monospace !important;&quot; class=&quot;hljs&quot;&gt;size_of::&amp;lt;Option&amp;lt;&amp;amp;T&amp;gt;&amp;gt;() == size_of::&amp;lt;&amp;amp;T&amp;gt;()&lt;/code&gt;&lt;span style=&quot;color: rgb(0, 0, 0); font-family: &amp;quot;Open Sans&amp;quot;, sans-serif; font-style: normal; font-variant-ligatures: normal; font-variant-caps: normal; font-weight: 400; letter-spacing: normal; orphans: 2; text-align: start; text-indent: 0px; text-transform: none; widows: 2; word-spacing: 0px; -webkit-text-stroke-width: 0px; background-color: rgb(255, 255, 255); text-decoration-thickness: initial; text-decoration-style: initial; text-decoration-color: initial; float: none; display: inline !important;&quot;&gt;.&lt;/span&gt;&lt;/font&gt;" style="text;whiteSpace=wrap;html=1;" vertex="1" parent="1">
          <mxGeometry x="471" y="555" width="577" height="78" as="geometry" />
        </mxCell>
        <mxCell id="MJgvrgMyZ8aBI9BDAx1X-24" value="&lt;font style=&quot;font-size: 12px;&quot;&gt;&lt;span style=&quot;color: rgb(0, 0, 0); font-family: &amp;quot;Open Sans&amp;quot;, sans-serif; font-style: normal; font-variant-ligatures: normal; font-variant-caps: normal; font-weight: 400; letter-spacing: normal; orphans: 2; text-align: start; text-indent: 0px; text-transform: none; widows: 2; word-spacing: 0px; -webkit-text-stroke-width: 0px; background-color: rgb(255, 255, 255); text-decoration-thickness: initial; text-decoration-style: initial; text-decoration-color: initial; float: none; display: inline !important;&quot;&gt;The most common type that takes advantage of the&amp;nbsp;&lt;/span&gt;&lt;mark style=&quot;border-radius: 2px; padding: 0px 3px 1px; margin: 0px -3px -1px; background-color: var(--search-mark-bg); transition: background-color 300ms linear 0s; cursor: pointer; font-family: &amp;quot;Open Sans&amp;quot;, sans-serif; font-style: normal; font-variant-ligatures: normal; font-variant-caps: normal; font-weight: 400; letter-spacing: normal; orphans: 2; text-align: start; text-indent: 0px; text-transform: none; widows: 2; word-spacing: 0px; -webkit-text-stroke-width: 0px; text-decoration-thickness: initial; text-decoration-style: initial; text-decoration-color: initial;&quot; data-markjs=&quot;true&quot;&gt;null&lt;/mark&gt;&lt;span style=&quot;color: rgb(0, 0, 0); font-family: &amp;quot;Open Sans&amp;quot;, sans-serif; font-style: normal; font-variant-ligatures: normal; font-variant-caps: normal; font-weight: 400; letter-spacing: normal; orphans: 2; text-align: start; text-indent: 0px; text-transform: none; widows: 2; word-spacing: 0px; -webkit-text-stroke-width: 0px; background-color: rgb(255, 255, 255); text-decoration-thickness: initial; text-decoration-style: initial; text-decoration-color: initial; float: none; display: inline !important;&quot;&gt;able&lt;span&gt;&amp;nbsp;&lt;/span&gt;&lt;/span&gt;&lt;mark style=&quot;border-radius: 2px; padding: 0px 3px 1px; margin: 0px -3px -1px; background-color: var(--search-mark-bg); transition: background-color 300ms linear 0s; cursor: pointer; font-family: &amp;quot;Open Sans&amp;quot;, sans-serif; font-style: normal; font-variant-ligatures: normal; font-variant-caps: normal; font-weight: 400; letter-spacing: normal; orphans: 2; text-align: start; text-indent: 0px; text-transform: none; widows: 2; word-spacing: 0px; -webkit-text-stroke-width: 0px; text-decoration-thickness: initial; text-decoration-style: initial; text-decoration-color: initial;&quot; data-markjs=&quot;true&quot;&gt;pointer&lt;/mark&gt;&lt;span style=&quot;color: rgb(0, 0, 0); font-family: &amp;quot;Open Sans&amp;quot;, sans-serif; font-style: normal; font-variant-ligatures: normal; font-variant-caps: normal; font-weight: 400; letter-spacing: normal; orphans: 2; text-align: start; text-indent: 0px; text-transform: none; widows: 2; word-spacing: 0px; -webkit-text-stroke-width: 0px; background-color: rgb(255, 255, 255); text-decoration-thickness: initial; text-decoration-style: initial; text-decoration-color: initial; float: none; display: inline !important;&quot;&gt;&lt;span&gt;&amp;nbsp;&lt;/span&gt;&lt;/span&gt;&lt;mark style=&quot;border-radius: 2px; padding: 0px 3px 1px; margin: 0px -3px -1px; background-color: var(--search-mark-bg); transition: background-color 300ms linear 0s; cursor: pointer; font-family: &amp;quot;Open Sans&amp;quot;, sans-serif; font-style: normal; font-variant-ligatures: normal; font-variant-caps: normal; font-weight: 400; letter-spacing: normal; orphans: 2; text-align: start; text-indent: 0px; text-transform: none; widows: 2; word-spacing: 0px; -webkit-text-stroke-width: 0px; text-decoration-thickness: initial; text-decoration-style: initial; text-decoration-color: initial;&quot; data-markjs=&quot;true&quot;&gt;optimization&lt;/mark&gt;&lt;span style=&quot;color: rgb(0, 0, 0); font-family: &amp;quot;Open Sans&amp;quot;, sans-serif; font-style: normal; font-variant-ligatures: normal; font-variant-caps: normal; font-weight: 400; letter-spacing: normal; orphans: 2; text-align: start; text-indent: 0px; text-transform: none; widows: 2; word-spacing: 0px; -webkit-text-stroke-width: 0px; background-color: rgb(255, 255, 255); text-decoration-thickness: initial; text-decoration-style: initial; text-decoration-color: initial; float: none; display: inline !important;&quot;&gt;&lt;span&gt;&amp;nbsp;&lt;/span&gt;is&lt;span&gt;&amp;nbsp;&lt;/span&gt;&lt;/span&gt;&lt;code style=&quot;display: inline; overflow-x: initial; background: rgb(246, 247, 246); color: var(--inline-code-color); padding: 0.1em 0.3em; border-radius: 3px; font-style: normal; font-variant-ligatures: normal; font-variant-caps: normal; font-weight: 400; letter-spacing: normal; orphans: 2; text-align: start; text-indent: 0px; text-transform: none; widows: 2; word-spacing: 0px; -webkit-text-stroke-width: 0px; text-decoration-thickness: initial; text-decoration-style: initial; text-decoration-color: initial; font-family: &amp;quot;Source Code Pro&amp;quot;, Consolas, &amp;quot;Ubuntu Mono&amp;quot;, Menlo, &amp;quot;DejaVu Sans Mono&amp;quot;, monospace, monospace !important;&quot; class=&quot;hljs&quot;&gt;Option&amp;lt;T&amp;gt;&lt;/code&gt;&lt;span style=&quot;color: rgb(0, 0, 0); font-family: &amp;quot;Open Sans&amp;quot;, sans-serif; font-style: normal; font-variant-ligatures: normal; font-variant-caps: normal; font-weight: 400; letter-spacing: normal; orphans: 2; text-align: start; text-indent: 0px; text-transform: none; widows: 2; word-spacing: 0px; -webkit-text-stroke-width: 0px; background-color: rgb(255, 255, 255); text-decoration-thickness: initial; text-decoration-style: initial; text-decoration-color: initial; float: none; display: inline !important;&quot;&gt;, where&lt;span&gt;&amp;nbsp;&lt;/span&gt;&lt;/span&gt;&lt;code style=&quot;display: inline; overflow-x: initial; background: rgb(246, 247, 246); color: var(--inline-code-color); padding: 0.1em 0.3em; border-radius: 3px; font-style: normal; font-variant-ligatures: normal; font-variant-caps: normal; font-weight: 400; letter-spacing: normal; orphans: 2; text-align: start; text-indent: 0px; text-transform: none; widows: 2; word-spacing: 0px; -webkit-text-stroke-width: 0px; text-decoration-thickness: initial; text-decoration-style: initial; text-decoration-color: initial; font-family: &amp;quot;Source Code Pro&amp;quot;, Consolas, &amp;quot;Ubuntu Mono&amp;quot;, Menlo, &amp;quot;DejaVu Sans Mono&amp;quot;, monospace, monospace !important;&quot; class=&quot;hljs&quot;&gt;None&lt;/code&gt;&lt;span style=&quot;color: rgb(0, 0, 0); font-family: &amp;quot;Open Sans&amp;quot;, sans-serif; font-style: normal; font-variant-ligatures: normal; font-variant-caps: normal; font-weight: 400; letter-spacing: normal; orphans: 2; text-align: start; text-indent: 0px; text-transform: none; widows: 2; word-spacing: 0px; -webkit-text-stroke-width: 0px; background-color: rgb(255, 255, 255); text-decoration-thickness: initial; text-decoration-style: initial; text-decoration-color: initial; float: none; display: inline !important;&quot;&gt;&lt;span&gt;&amp;nbsp;&lt;/span&gt;corresponds to&lt;span&gt;&amp;nbsp;&lt;/span&gt;&lt;/span&gt;&lt;code style=&quot;display: inline; overflow-x: initial; background: rgb(246, 247, 246); color: var(--inline-code-color); padding: 0.1em 0.3em; border-radius: 3px; font-style: normal; font-variant-ligatures: normal; font-variant-caps: normal; font-weight: 400; letter-spacing: normal; orphans: 2; text-align: start; text-indent: 0px; text-transform: none; widows: 2; word-spacing: 0px; -webkit-text-stroke-width: 0px; text-decoration-thickness: initial; text-decoration-style: initial; text-decoration-color: initial; font-family: &amp;quot;Source Code Pro&amp;quot;, Consolas, &amp;quot;Ubuntu Mono&amp;quot;, Menlo, &amp;quot;DejaVu Sans Mono&amp;quot;, monospace, monospace !important;&quot; class=&quot;hljs&quot;&gt;&lt;mark style=&quot;border-radius: 2px; padding: 0px 3px 1px; margin: 0px -3px -1px; background-color: var(--search-mark-bg); transition: background-color 300ms linear 0s; cursor: pointer;&quot; data-markjs=&quot;true&quot;&gt;null&lt;/mark&gt;&lt;/code&gt;&lt;span style=&quot;color: rgb(0, 0, 0); font-family: &amp;quot;Open Sans&amp;quot;, sans-serif; font-style: normal; font-variant-ligatures: normal; font-variant-caps: normal; font-weight: 400; letter-spacing: normal; orphans: 2; text-align: start; text-indent: 0px; text-transform: none; widows: 2; word-spacing: 0px; -webkit-text-stroke-width: 0px; background-color: rgb(255, 255, 255); text-decoration-thickness: initial; text-decoration-style: initial; text-decoration-color: initial; float: none; display: inline !important;&quot;&gt;. So&lt;span&gt;&amp;nbsp;&lt;/span&gt;&lt;/span&gt;&lt;code style=&quot;display: inline; overflow-x: initial; background: rgb(246, 247, 246); color: var(--inline-code-color); padding: 0.1em 0.3em; border-radius: 3px; font-style: normal; font-variant-ligatures: normal; font-variant-caps: normal; font-weight: 400; letter-spacing: normal; orphans: 2; text-align: start; text-indent: 0px; text-transform: none; widows: 2; word-spacing: 0px; -webkit-text-stroke-width: 0px; text-decoration-thickness: initial; text-decoration-style: initial; text-decoration-color: initial; font-family: &amp;quot;Source Code Pro&amp;quot;, Consolas, &amp;quot;Ubuntu Mono&amp;quot;, Menlo, &amp;quot;DejaVu Sans Mono&amp;quot;, monospace, monospace !important;&quot; class=&quot;hljs&quot;&gt;Option&amp;lt;extern &quot;C&quot; fn(c_int) -&amp;gt; c_int&amp;gt;&lt;/code&gt;&lt;span style=&quot;color: rgb(0, 0, 0); font-family: &amp;quot;Open Sans&amp;quot;, sans-serif; font-style: normal; font-variant-ligatures: normal; font-variant-caps: normal; font-weight: 400; letter-spacing: normal; orphans: 2; text-align: start; text-indent: 0px; text-transform: none; widows: 2; word-spacing: 0px; -webkit-text-stroke-width: 0px; background-color: rgb(255, 255, 255); text-decoration-thickness: initial; text-decoration-style: initial; text-decoration-color: initial; float: none; display: inline !important;&quot;&gt;&lt;span&gt;&amp;nbsp;&lt;/span&gt;is a correct way to represent a&lt;span&gt;&amp;nbsp;&lt;/span&gt;&lt;/span&gt;&lt;mark style=&quot;border-radius: 2px; padding: 0px 3px 1px; margin: 0px -3px -1px; background-color: var(--search-mark-bg); transition: background-color 300ms linear 0s; cursor: pointer; font-family: &amp;quot;Open Sans&amp;quot;, sans-serif; font-style: normal; font-variant-ligatures: normal; font-variant-caps: normal; font-weight: 400; letter-spacing: normal; orphans: 2; text-align: start; text-indent: 0px; text-transform: none; widows: 2; word-spacing: 0px; -webkit-text-stroke-width: 0px; text-decoration-thickness: initial; text-decoration-style: initial; text-decoration-color: initial;&quot; data-markjs=&quot;true&quot;&gt;null&lt;/mark&gt;&lt;span style=&quot;color: rgb(0, 0, 0); font-family: &amp;quot;Open Sans&amp;quot;, sans-serif; font-style: normal; font-variant-ligatures: normal; font-variant-caps: normal; font-weight: 400; letter-spacing: normal; orphans: 2; text-align: start; text-indent: 0px; text-transform: none; widows: 2; word-spacing: 0px; -webkit-text-stroke-width: 0px; background-color: rgb(255, 255, 255); text-decoration-thickness: initial; text-decoration-style: initial; text-decoration-color: initial; float: none; display: inline !important;&quot;&gt;able function&lt;span&gt;&amp;nbsp;&lt;/span&gt;&lt;/span&gt;&lt;mark style=&quot;border-radius: 2px; padding: 0px 3px 1px; margin: 0px -3px -1px; background-color: var(--search-mark-bg); transition: background-color 300ms linear 0s; cursor: pointer; font-family: &amp;quot;Open Sans&amp;quot;, sans-serif; font-style: normal; font-variant-ligatures: normal; font-variant-caps: normal; font-weight: 400; letter-spacing: normal; orphans: 2; text-align: start; text-indent: 0px; text-transform: none; widows: 2; word-spacing: 0px; -webkit-text-stroke-width: 0px; text-decoration-thickness: initial; text-decoration-style: initial; text-decoration-color: initial;&quot; data-markjs=&quot;true&quot;&gt;pointer&lt;/mark&gt;&lt;span style=&quot;color: rgb(0, 0, 0); font-family: &amp;quot;Open Sans&amp;quot;, sans-serif; font-style: normal; font-variant-ligatures: normal; font-variant-caps: normal; font-weight: 400; letter-spacing: normal; orphans: 2; text-align: start; text-indent: 0px; text-transform: none; widows: 2; word-spacing: 0px; -webkit-text-stroke-width: 0px; background-color: rgb(255, 255, 255); text-decoration-thickness: initial; text-decoration-style: initial; text-decoration-color: initial; float: none; display: inline !important;&quot;&gt;&lt;span&gt;&amp;nbsp;&lt;/span&gt;using the C ABI (corresponding to the C type&lt;span&gt;&amp;nbsp;&lt;/span&gt;&lt;/span&gt;&lt;code style=&quot;display: inline; overflow-x: initial; background: rgb(246, 247, 246); color: var(--inline-code-color); padding: 0.1em 0.3em; border-radius: 3px; font-style: normal; font-variant-ligatures: normal; font-variant-caps: normal; font-weight: 400; letter-spacing: normal; orphans: 2; text-align: start; text-indent: 0px; text-transform: none; widows: 2; word-spacing: 0px; -webkit-text-stroke-width: 0px; text-decoration-thickness: initial; text-decoration-style: initial; text-decoration-color: initial; font-family: &amp;quot;Source Code Pro&amp;quot;, Consolas, &amp;quot;Ubuntu Mono&amp;quot;, Menlo, &amp;quot;DejaVu Sans Mono&amp;quot;, monospace, monospace !important;&quot; class=&quot;hljs&quot;&gt;int (*)(int)&lt;/code&gt;&lt;span style=&quot;color: rgb(0, 0, 0); font-family: &amp;quot;Open Sans&amp;quot;, sans-serif; font-style: normal; font-variant-ligatures: normal; font-variant-caps: normal; font-weight: 400; letter-spacing: normal; orphans: 2; text-align: start; text-indent: 0px; text-transform: none; widows: 2; word-spacing: 0px; -webkit-text-stroke-width: 0px; background-color: rgb(255, 255, 255); text-decoration-thickness: initial; text-decoration-style: initial; text-decoration-color: initial; float: none; display: inline !important;&quot;&gt;).&lt;/span&gt;&lt;/font&gt;" style="text;whiteSpace=wrap;html=1;" vertex="1" parent="1">
          <mxGeometry x="471" y="640" width="592" height="66" as="geometry" />
        </mxCell>
      </root>
    </mxGraphModel>
  </diagram>
</mxfile>
